<svg width="96" height="96" xmlns="http://www.w3.org/2000/svg" xmlns:xlink="http://www.w3.org/1999/xlink" overflow="hidden"><defs><clipPath id="clip0"><rect x="592" y="312" width="96" height="96"/></clipPath></defs><g clip-path="url(#clip0)" transform="translate(-592 -312)"><path d="M674.005 378 674.005 369 645.005 348.5 645.005 329C645.005 325.1 643.005 320 640.005 320 637.105 320 635.005 325.1 635.005 329L635.005 348.5 606.005 369 606.005 378 635.005 363.5 635.005 385.3 625.005 394 625.005 400 640.005 394 655.005 400 655.005 394 645.005 385.3 645.005 363.5ZM643.692 386.809 653.005 394.909 653.005 397.044 640.748 392.144 640.005 391.844 639.262 392.144 627.005 397.044 627.005 394.911 636.318 386.811 637.005 386.211 637.005 360.264 634.105 361.711 608.005 374.764 608.005 370.035 636.159 350.135 637.005 349.535 637.005 329C637.005 325.459 638.905 322 640.005 322 641.259 322 643.005 325.527 643.005 329L643.005 349.535 643.85 350.135 672.005 370.035 672.005 374.764 645.9 361.711 643.006 360.264 643.006 386.211Z"/></g></svg>